<svg version="1.2" xmlns="http://www.w3.org/2000/svg" viewBox="0 0 411 459" width="411" height="459">
	<style>
		.s0 { opacity: 1;fill: #076776 } 
		.s1 { opacity: 1;fill: #ce7be8 } 
		.s2 { opacity: 1;fill: #fdc148 } 
		.s3 { opacity: 1;fill: #e95fc3 } 
		.s4 { opacity: 1;fill: #5cede3 } 
		.s5 { opacity: 1;fill: #bc795c } 
		.s6 { opacity: 1;fill: #fcd2b0 } 
	</style>
	<g id="Background">
		<path id="Path 0" fill-rule="evenodd" class="s0" d="m176.1 1.18c2.89 0.3 3.22 0.82 6.34 9.82 1.81 5.22 5.06 13.55 7.23 18.5 2.16 4.95 7.63 15.75 12.15 24 4.72 8.61 9.54 19.05 11.33 24.5 2.73 8.36 3.12 10.94 3.21 21.5 0.06 6.86-0.42 13.82-1.13 16.25-0.68 2.34-2.13 6.05-3.23 8.25-1.1 2.2-2.23 6.81-2.52 10.25-0.3 3.66-1.37 7.7-2.56 9.75-1.92 3.28-1.99 4.22-1.05 15 0.54 6.32 1.02 12.18 1.05 13 0.03 0.82 0.25 3.98 0.48 7 0.23 3.02 0.68 7.19 1.01 9.25 0.32 2.06 1.04 3.75 1.59 3.75 0.55 0 3.1-1.91 5.67-4.25 2.57-2.34 6.74-6.21 9.25-8.6 2.52-2.39 12.01-10.75 21.08-18.58 9.07-7.83 22.8-18.94 30.5-24.69 7.7-5.75 16.93-12.18 20.5-14.29 4.74-2.79 13.27-5.84 31.5-11.28 13.75-4.09 35.57-10.75 48.5-14.78 12.93-4.04 25.52-7.85 28-8.47 2.48-0.63 4.61-0.9 4.75-0.6 0.14 0.3-1.61 4.03-3.88 8.29-2.28 4.26-9.19 16.75-15.36 27.75-6.17 11-15.61 28.32-20.98 38.5-5.36 10.18-10.77 19.85-12.01 21.5-1.24 1.65-9.18 10.19-17.64 18.98-8.46 8.79-22.58 23.19-31.38 32-8.8 8.82-21.18 20.97-27.5 27.02-6.33 6.05-14.41 13.48-17.97 16.5-3.55 3.02-7.82 6.74-12.53 11.01l2.59 2.24c1.42 1.24 7.72 6.28 14 11.21 6.27 4.93 30.31 24.07 53.41 42.53 23.1 18.45 46.05 36.7 51 40.53 4.95 3.84 10.09 7.88 11.43 8.98 1.33 1.1 4.22 3.58 6.41 5.5 2.19 1.92 4.86 5.52 5.94 8 1.07 2.48 1.96 6.3 1.96 8.5 0 2.2-0.84 5.76-1.87 7.9-1.03 2.15-3.56 5.41-5.62 7.25-2.06 1.84-5.44 3.8-7.5 4.34-2.06 0.55-5.32 1-7.25 1.01-1.93 0-5.75-1.19-8.5-2.65-2.75-1.45-12.31-7.42-21.24-13.25-8.93-5.83-22.11-14.43-29.28-19.1-7.17-4.67-13.03-8.84-13.01-9.25 0.02-0.41-0.76-0.9-1.72-1.09-0.96-0.19-15.93-9.71-33.25-21.16-17.32-11.44-35.21-23.22-39.75-26.16-4.54-2.93-8.49-5.23-8.78-5.09-0.29 0.14-0.72 11.27-0.97 24.75-0.24 13.48-0.68 27.2-0.97 30.5-0.28 3.3-0.77 9.6-1.08 14-0.31 4.4-0.56 8.9-0.56 10 0 1.1-0.87 7.62-1.95 14.5-1.35 8.64-2.8 14.19-4.7 17.98-1.6 3.19-3.99 6.21-5.74 7.25-2.3 1.37-4.05 1.62-7.5 1.08-2.68-0.41-5.63-1.73-7.3-3.25-1.55-1.41-2.92-3.23-3.05-4.06-0.14-0.83-0.79-2.51-1.45-3.75-0.66-1.24-0.98-2.59-0.71-3 0.27-0.41 0.1-1.2-0.38-1.75-0.48-0.55-1.38-3.48-1.99-6.5-0.62-3.02-0.9-5.73-0.63-6 0.27-0.27 0.08-0.95-0.42-1.5-0.51-0.55-1.24-3.7-1.64-7-0.39-3.3-0.8-7.35-0.91-9-0.1-1.65-0.49-4.58-0.86-6.5-0.37-1.92-0.9-6.42-1.17-10-0.28-3.58-0.92-11-1.42-16.5-0.5-5.5-1.18-14.05-1.52-19-0.33-4.95-0.71-9.09-0.83-9.2-0.12-0.11-1.34 0.44-2.72 1.21-1.37 0.78-3.18 1.76-4 2.19-0.82 0.42-2.85 2.02-4.5 3.54-1.65 1.53-3.34 2.77-3.75 2.77-0.41-0.01-1.31 0.47-2 1.05-0.69 0.58-6.87 5.08-13.75 10-6.87 4.91-13.06 8.94-13.75 8.94-0.69 0-1.25 0.45-1.25 1 0 0.55-3.04 3.01-6.75 5.47-3.71 2.45-8.78 5.9-11.25 7.66-2.47 1.75-11.03 7.55-19 12.88-7.97 5.34-16.97 11.1-20 12.82-3.02 1.72-6.85 3.15-8.5 3.17-1.65 0.02-4.46-0.42-6.25-0.98-1.79-0.56-3.25-1.47-3.25-2.02 0-0.55-0.45-0.77-1-0.5-0.55 0.27-4.37-2.65-8.5-6.5-4.12-3.85-7.5-7.45-7.5-8 0-0.55-0.79-1.86-1.75-2.9-0.96-1.05-2.82-4.08-4.12-6.75-2.01-4.12-2.25-5.6-1.57-9.85 0.68-4.21 1.84-6.17 7.37-12.42 3.61-4.09 12.6-14.21 19.97-22.5 7.36-8.3 17.94-20.01 23.5-26.04 5.55-6.03 14.59-15.7 20.07-21.5 5.49-5.8 14.94-15.62 21-21.84 6.07-6.21 11.14-11.5 11.28-11.75 0.14-0.25-0.43-1.46-1.27-2.7-0.83-1.24-1.73-2.14-2-2-0.26 0.14-3.29-1.41-6.73-3.44-3.44-2.03-13.22-8.32-21.75-13.98-8.52-5.66-18.23-12.21-21.57-14.56-3.33-2.35-10.98-8.07-17-12.71-6.01-4.64-17.23-13.71-24.93-20.15-7.7-6.44-17.68-15.47-22.17-20.06-4.49-4.59-8.88-10.04-9.75-12.1-0.87-2.06-1.58-6-1.58-8.75 0-2.75 0.92-11.41 2.04-19.25 1.13-7.84 2.59-15.56 3.25-17.16 0.67-1.6 2.45-3.96 3.96-5.25 1.51-1.29 4.55-2.79 6.75-3.34 3.63-0.91 4.34-1.66 7.75-8.18 2.33-4.47 4.88-7.87 6.75-9 1.65-1 4.91-1.81 7.25-1.82 2.89 0 9.14 1.97 19.5 6.13 8.39 3.37 21.1 8.89 28.25 12.26 7.15 3.38 19.3 9.46 27 13.52 7.7 4.06 15.8 8.5 18 9.87 2.2 1.36 8.39 5.57 13.75 9.35 5.36 3.78 10.2 6.64 10.75 6.37 0.55-0.27 1-2.19 1.01-4.25 0-2.06-0.75-4.88-1.68-6.25-0.92-1.38-1.94-5.34-2.25-8.81-0.47-5.09-1.02-6.59-2.83-7.75-1.24-0.79-3.6-4.14-5.25-7.44-1.65-3.3-2.66-6.01-2.25-6.02 0.41 0 0.21-0.34-0.46-0.75-0.67-0.4-2.13-4.33-3.26-8.73-1.13-4.4-2.05-11.04-2.04-14.75 0-3.71 0.67-9.56 1.48-13 0.81-3.44 2.62-9.18 4.03-12.75 1.41-3.57 6.14-12.8 10.51-20.5 4.37-7.7 9.92-18.5 12.35-24 2.43-5.5 5.15-11.72 6.05-13.82 1.46-3.37 2-3.77 4.69-3.5zm-123.45 130.57c-0.43 0.82 5.92 5.75 18.6 14.45 10.59 7.27 25.55 17.7 33.25 23.18 7.7 5.49 18.28 13.13 23.5 16.99 5.23 3.86 12.54 9.4 16.25 12.32 3.71 2.92 6.92 4.97 7.13 4.56 0.21-0.41 0.66-2.21 1-4 0.4-2.11 0.1-4.04-0.86-5.5-0.81-1.24-2.1-5.18-2.85-8.75-0.76-3.57-2.08-7.85-2.94-9.5-0.86-1.65-3.52-4.87-5.9-7.15-2.38-2.29-8.15-6.62-12.83-9.64-4.67-3.01-14.12-8.28-21-11.72-6.87-3.43-19.25-9.06-27.5-12.5-8.25-3.45-16.58-6.57-18.52-6.95-2.74-0.53-3.87-0.28-5.1 1.14-0.87 1-1.87 2.38-2.23 3.07z"/>
		<path id="Path 1" class="s1" d="m35.87 106.01c-0.89 0.59-2.79 2.96-4.23 5.28-1.43 2.31-2.61 4.77-2.62 5.46-0.01 0.69 4.14 4.01 9.23 7.38l9.25 6.12c2.68-3.68 3.45-4.98 3.45-5.25 0-0.27 1.13-1.06 2.52-1.75 1.39-0.69 3.54-1.24 4.78-1.24 1.24 0.01 8.55 2.54 16.25 5.62 7.7 3.07 21.65 9.35 31 13.95 9.35 4.6 21.05 11.07 26 14.37 4.95 3.31 10.97 7.93 13.37 10.28 2.41 2.35 5.15 6.07 6.1 8.27 0.95 2.2 2.28 6.93 2.95 10.5 0.88 4.67 2.05 7.42 4.15 9.75 1.61 1.79 3.72 3.36 4.68 3.5 1.19 0.17 1.86-0.54 2.11-2.25 0.2-1.38-0.19-5.65-0.87-9.5-0.67-3.85-2.27-9.25-3.55-12-1.28-2.75-4.83-7.59-7.88-10.75-3.06-3.16-6.12-5.77-6.81-5.79-0.69-0.02-1.93-0.87-2.75-1.89-0.82-1.02-6.68-5.1-13-9.06-6.33-3.96-20.5-11.63-31.5-17.04-11-5.41-27.65-13.08-37-17.04-9.35-3.95-18.57-7.37-20.5-7.59-1.92-0.21-4.23 0.09-5.13 0.67zm-18.97 17.07c-0.88 0.56-2.29 2.23-3.13 3.72-0.83 1.48-2.3 7.88-3.25 14.2-0.96 6.32-1.58 14.79-1.38 18.81l0.36 7.3c15.52 15.03 22.68 21.64 25.91 24.39 3.24 2.75 9.76 8.05 14.49 11.78 4.73 3.72 9.5 7.44 10.6 8.26 1.1 0.82 4.7 3.67 8 6.33 3.3 2.67 9.53 7.28 13.84 10.24 4.31 2.96 9.76 6.74 12.1 8.39 2.34 1.65 8.93 6.11 14.66 9.92 5.72 3.81 14.45 9.08 19.4 11.73 4.95 2.65 9.45 4.82 10 4.84 0.55 0.01 7.19-6.06 14.75-13.49 7.56-7.42 13.76-14.06 13.77-14.75 0.01-0.69-1.31-3.27-2.94-5.75-1.63-2.48-6.28-7.65-10.33-11.5-4.05-3.85-8.69-8.14-10.31-9.53-1.62-1.39-8.56-6.81-15.44-12.03-6.87-5.23-14.97-11.15-18-13.16-3.03-2.01-9.78-6.82-15-10.68-5.22-3.86-10.62-7.59-12-8.29-1.37-0.71-3.4-2.06-4.5-3.02-1.1-0.95-11.9-8.57-24-16.93-12.1-8.36-24.36-16.7-27.25-18.53-2.89-1.83-6.04-3.32-7-3.3-0.96 0.02-2.47 0.49-3.35 1.05z"/>
		<path id="Path 2" class="s2" d="m288.88 139.67c-6.81 4.77-14.4 10.36-16.88 12.42-2.48 2.06-9.45 7.92-15.5 13.02-6.05 5.1-15.5 13.31-21 18.25-5.5 4.94-15.06 13.63-21.25 19.31-6.19 5.68-11.2 10.67-11.13 11.08 0.06 0.41 0.06 1.43-0.02 2.25-0.12 1.33-0.23 1.33-1.06 0-0.79-1.27-1.32-1.12-3.46 1-1.39 1.38-2.31 2.84-2.05 3.25 0.26 0.41 0.13 0.67-0.28 0.57-0.41-0.09-3.45 2.27-6.75 5.25-3.3 2.98-22.45 21.85-42.55 41.93-20.11 20.07-41.98 42.35-48.62 49.5-6.64 7.15-14.53 15.7-17.54 19-3.01 3.3-9.73 10.73-14.92 16.5-5.19 5.77-14.02 15.67-19.61 22-5.6 6.33-10.19 12.29-10.22 13.25-0.02 0.96 0.91 3.44 2.07 5.5 1.16 2.06 4.01 6 6.33 8.75 2.32 2.75 6.43 6.47 9.14 8.27 2.71 1.8 5.59 3.27 6.42 3.28 0.83 0 6-2.79 11.5-6.2 5.5-3.42 10.22-6.47 10.5-6.78 0.28-0.32 5.22-3.72 11-7.57 5.78-3.85 10.72-7.25 11-7.57 0.28-0.31 2.75-2.08 5.5-3.94 2.75-1.85 5.11-3.74 5.25-4.18 0.14-0.45 0.7-0.81 1.25-0.81 0.55 0 10.11-6.44 21.25-14.32 11.14-7.87 26.78-18.98 34.75-24.69 7.97-5.7 15.51-11.41 16.75-12.68 1.24-1.27 2.26-1.97 2.28-1.56 0.02 0.41 0.7-0.15 1.52-1.25 0.82-1.1 1.48-1.66 1.47-1.25-0.01 0.41 4.14-2.51 9.23-6.49 5.09-3.98 15.1-12.12 22.25-18.08 7.15-5.97 18.69-15.88 25.64-22.02 6.95-6.14 31.25-29.73 54-52.42l41.36-41.26c-18.9-18.83-27.42-28.75-33.28-36.77-5.35-7.31-10.22-13.27-10.84-13.25-0.61 0.02-6.69 3.94-13.5 8.71z"/>
		<path id="Path 3" class="s3" d="m238.5 296.8c-2.2 1.52-6.07 4.77-8.61 7.23-2.54 2.46-7.37 7.06-10.75 10.22-3.38 3.16-6.14 6.2-6.14 6.75 0 0.55 1.69 2.24 3.75 3.75 2.06 1.51 3.86 3.09 4 3.5 0.14 0.41 0.81 0.76 1.5 0.78 0.69 0.01 1.93 0.65 2.75 1.42 0.82 0.76 2.14 1.54 2.92 1.72 0.78 0.18 2.17 1 3.1 1.83 0.92 0.83 2.65 2.29 3.83 3.25 1.18 0.96 2.37 1.75 2.65 1.75 0.28 0 3.25 1.91 6.6 4.25 3.36 2.34 7.3 4.92 8.75 5.75 1.46 0.83 2.88 1.73 3.15 2.01 0.27 0.28 2.41 1.74 4.75 3.25 2.34 1.51 4.25 2.4 4.24 1.99 0-0.41 0.67 0.26 1.5 1.5 0.83 1.24 2.19 2.25 3.01 2.25 0.82 0 1.5 0.45 1.5 1 0 0.55 0.45 1 1 1 0.55 0 3.14 1.44 5.75 3.2 2.61 1.76 5.08 3.67 5.48 4.25 0.46 0.66 0.76 0.67 0.79 0.05 0.02-0.55 0.48-0.21 1.01 0.75 0.53 0.96 1.42 1.75 1.97 1.75 0.55 0 3.93 2.02 7.5 4.5 3.57 2.48 6.73 4.5 7 4.5 0.27 0 3 1.69 6.06 3.75 3.05 2.06 5.65 3.52 5.77 3.25 0.12-0.27 1.33 0.54 2.69 1.8 1.37 1.27 5.41 4.19 8.98 6.5 3.57 2.3 6.61 4.53 6.75 4.95 0.14 0.41 0.81 0.77 1.5 0.79 0.69 0.02 4.06 2.05 7.5 4.5 3.44 2.45 6.7 4.46 7.25 4.46 0.55 0 1 0.45 1 1 0 0.55 0.56 0.98 1.25 0.96 0.69-0.03 1.93 0.69 2.75 1.59 0.82 0.91 2.96 2.28 4.75 3.05 1.79 0.77 3.25 1.85 3.25 2.4 0 0.55 0.56 1.01 1.25 1.02 0.69 0.01 3.27 1.37 5.75 3.03 3.4 2.27 5.6 2.99 9 2.95 3.55-0.05 5.19-0.69 7.75-3.03 2.64-2.41 3.31-3.86 3.57-7.72 0.21-3.06-0.23-5.64-1.23-7.25-0.85-1.38-2.24-3-3.07-3.61-0.84-0.6-2.2-1.75-3.02-2.53-0.82-0.79-3.3-2.74-5.5-4.34-2.2-1.6-4.45-3.4-5-4-0.55-0.61-2.8-2.43-5-4.05-2.2-1.63-4.23-3.21-4.5-3.52-0.27-0.3-2.3-1.86-4.5-3.45-2.2-1.59-4.45-3.36-5-3.94-0.55-0.58-2.8-2.38-5-3.99-2.2-1.61-4.68-3.53-5.5-4.27-0.82-0.75-6.11-4.94-11.75-9.33-5.64-4.38-10.48-7.97-10.75-7.97-0.27 0-1.74-1.24-3.25-2.75-1.51-1.51-4.77-4.3-7.25-6.2-2.48-1.89-4.84-4.03-5.25-4.75-0.41-0.71-1.2-1.3-1.75-1.3-0.55 0-1.87-0.79-2.94-1.75-1.06-0.96-3.12-2.65-4.58-3.75-1.45-1.1-3.77-2.9-5.15-4-1.37-1.1-3.52-2.9-4.78-4-1.26-1.1-3.53-2.9-5.05-4-1.52-1.1-4.66-3.58-6.97-5.5-2.31-1.93-5.91-4.85-7.99-6.5-2.08-1.65-5.86-4.7-8.41-6.77-2.55-2.08-5.08-4.11-5.63-4.51-0.55-0.4-2.24-1.52-3.75-2.48-1.51-0.96-2.86-1.73-3-1.72-0.14 0.01-2.05 1.26-4.25 2.78z"/>
		<path id="Path 4" class="s4" d="m165.79 153.82c-0.04 3.67-0.01 7.92 0.07 9.43 0.08 1.51 0.79 3.76 1.58 5 0.79 1.24 2.34 5.63 3.45 9.75 1.1 4.13 2.26 9.3 2.59 11.5 0.32 2.2 0.79 5.57 1.03 7.5 0.25 1.93 0.66 5.3 0.92 7.5 0.26 2.2 0.06 4.68-0.43 5.5-0.77 1.29-1.28 1.21-3.7-0.6-1.54-1.15-4.26-2.83-6.05-3.75-1.79-0.91-3.49-1.54-3.78-1.4-0.29 0.14-0.51 2.39-0.5 5 0.03 4.28 0.47 5.17 4.39 9 2.4 2.34 4.88 5.26 5.5 6.5 0.63 1.24 1.62 2.25 2.21 2.25 0.59 0 1.66-0.56 2.38-1.25 0.72-0.69 6.8-6.65 13.51-13.25 9.48-9.33 12.08-12.45 11.67-14-0.29-1.1-1.03-7.18-1.64-13.5-0.61-6.32-1.28-12.18-1.49-13-0.21-0.82-0.69-6.45-1.06-12.5-0.36-6.05-0.72-11.05-0.8-11.11-0.08-0.07-6.81-0.37-14.96-0.69l-14.82-0.57zm37.37 173.45c-0.57 0.68-5.8 4.61-11.61 8.74l-10.58 7.5c0.78 10.85 1.25 18.27 1.55 23.5 0.3 5.22 0.75 11.75 1.01 14.5 0.26 2.75 0.69 7.02 0.95 9.5 0.27 2.47 0.73 6.97 1.04 10 0.3 3.02 0.99 8.65 1.52 12.5 0.54 3.85 1.08 8.41 1.22 10.15 0.13 1.73 0.59 3.53 1.02 4 0.43 0.46 0.75 2.2 0.72 3.85-0.03 1.65 0.3 3.38 0.73 3.84 0.42 0.47 0.86 1.59 0.97 2.5 0.1 0.91 0.78 3.59 1.5 5.95 0.76 2.49 2.04 4.48 3.05 4.75 0.97 0.25 2.48-0.11 3.36-0.79 0.89-0.69 2.17-2.6 2.85-4.25 0.68-1.65 1.57-5.7 1.97-9 0.4-3.3 0.9-7.35 1.11-9 0.21-1.65 0.84-8.85 1.4-16 0.56-7.15 1.28-19.08 1.59-26.5 0.31-7.43 0.65-22.39 0.76-33.24l0.19-19.74c-4.7-3.55-5.52-3.72-6.32-2.76z"/>
		<path id="Path 5" class="s5" d="m174 24c0 1.1-1.75 5.26-3.88 9.25-2.13 3.99-6.46 11.53-9.62 16.75-3.17 5.22-6.84 11.97-8.17 15-1.33 3.03-3.07 7.97-3.86 11-0.79 3.02-1.44 8.99-1.45 13.25-0.02 5.64 0.66 9.79 2.48 15.25 1.37 4.13 3.74 9.31 5.25 11.51 2.3 3.35 3.58 4.19 7.75 5.08 2.75 0.58 5.22 0.78 5.5 0.44 0.28-0.34-0.08-2.96-0.8-5.82-0.71-2.87-1.56-8.58-1.89-12.71-0.33-4.12-0.05-11.77 0.61-17 0.67-5.23 1.83-11.75 2.58-14.5l1.37-5c0.13 8.53 0.64 15.27 1.22 20.5 0.57 5.23 1.23 11.07 1.45 13 0.22 1.93 1.43 7.55 2.68 12.5l2.28 9h7.91c2.89-13.95 3.89-18.68 4.08-19.5 0.2-0.82 0.39-4.09 0.43-7.25 0.05-3.67 0.5-5.75 1.25-5.75 0.64 0 0.87 0.34 0.5 0.75-0.36 0.41-0.1 1.39 0.59 2.16 0.89 1.02 1.17 5.45 0.99 15.75-0.19 10.94 0.05 14.34 1 14.33 0.69-0.01 2.99-0.34 5.11-0.75 3.15-0.6 4.13-1.38 5.36-4.24 0.83-1.93 1.75-7.77 2.04-13 0.4-7.21 0.09-11.31-1.28-17-1.11-4.56-4.44-12.59-8.52-20.5-3.69-7.15-8.69-16.82-11.12-21.5-2.43-4.68-5.76-11.76-7.39-15.75-1.64-3.99-3.31-7.25-3.71-7.25-0.41 0-0.74 0.9-0.74 2zm129.99 199.75l-27.49 27.75c43.02-42.63 55.5-55.11 55.5-55.25 0-0.14-0.12-0.25-0.26-0.25-0.14 0-12.63 12.49-27.75 27.75z"/>
		<path id="Path 6" class="s6" d="m341.83 116.49c-14.48 4.43-26.93 8.27-27.66 8.53-0.91 0.33 1.33 4.17 6.96 11.98 4.56 6.32 13.6 16.9 20.09 23.5 9.56 9.71 12 11.71 12.8 10.5 0.55-0.82 1.29-2.62 1.64-4 0.36-1.37 0.97-2.73 1.37-3 0.4-0.27 3.21-5.45 6.24-11.5 3.04-6.05 8.05-15.61 11.13-21.25l5.6-10.25c-3.87-2.32-6.54-5.15-8.42-7.78l-3.42-4.77zm-178.83 17.25c0 1.24 0.34 2.44 0.75 2.67 0.41 0.23 7.28 0.75 15.25 1.15 7.98 0.41 15.74 0.44 17.25 0.09 2.18-0.52 2.75-1.23 2.75-3.41v-2.75c-36 0-36 0-36 2.25z"/>
	</g>
</svg>